PathFileType  4	(X/Y/Z) C:\Users\antoi\Documents\MyRepositories\mobilecap\ResultsAnalysis
DataRate	CameraRate	NumFrames	NumMarkers	Units	OrigDataRate	OrigDataStartFrame	OrigNumFrames
100.0	100.0	6	51	mm	100.0	119	158
Frame#	Time	r_knee			r_shank_antsup			r_ankle			r_calc			r_5meta			r_toe			L_knee			L_shank_antsup			L_ankle			L_calc			L_5meta			L_toe			r_sh2			r_sh3			r_sh4			L_sh2			L_sh3			r_thigh1			r_thigh2			r_thigh3			r_thigh4			r_thigh5			L_thigh1			L_thigh2			L_thigh3			L_thigh4			r.ASIS			r.PSIS			L.ASIS			L.PSIS			C7			R_Shoulder			L_Shoulder			R_Sternum			L_Sternum			R_humerus			R_elbow_med			R_elbow_lat			R_forearm			R_wrist_radius			R_wrist_ulna			L_humerus			L_elbow_med			L_elbow_lat			L_forearm			L_wrist_radius			L_wrist_ulna			R_HJC			L_HJC			R_HJC_reg			L_HJC_reg			
		X1	Y1	Z1	X2	Y2	Z2	X3	Y3	Z3	X4	Y4	Z4	X5	Y5	Z5	X6	Y6	Z6	X7	Y7	Z7	X8	Y8	Z8	X9	Y9	Z9	X10	Y10	Z10	X11	Y11	Z11	X12	Y12	Z12	X13	Y13	Z13	X14	Y14	Z14	X15	Y15	Z15	X16	Y16	Z16	X17	Y17	Z17	X18	Y18	Z18	X19	Y19	Z19	X20	Y20	Z20	X21	Y21	Z21	X22	Y22	Z22	X23	Y23	Z23	X24	Y24	Z24	X25	Y25	Z25	X26	Y26	Z26	X27	Y27	Z27	X28	Y28	Z28	X29	Y29	Z29	X30	Y30	Z30	X31	Y31	Z31	X32	Y32	Z32	X33	Y33	Z33	X34	Y34	Z34	X35	Y35	Z35	X36	Y36	Z36	X37	Y37	Z37	X38	Y38	Z38	X39	Y39	Z39	X40	Y40	Z40	X41	Y41	Z41	X42	Y42	Z42	X43	Y43	Z43	X44	Y44	Z44	X45	Y45	Z45	X46	Y46	Z46	X47	Y47	Z47	X48	Y48	Z48	X49	Y49	Z49	X50	Y50	Z50	X51	Y51	Z51	

119	1.18000000	1177.39658	564.88186	-192.59549	1237.09495	459.77106	-194.58364	1251.77752	112.23313	-218.02598	1216.12464	66.98474	-283.59999	1390.51709	74.43994	-145.34589	1428.71228	124.99913	-198.30800	914.83124	553.45578	-534.39134	932.90854	445.23394	-524.48971	791.80993	113.04701	-511.30821	732.51136	88.18318	-456.50844	925.39354	30.85230	-546.55033	964.91920	54.12740	-481.51964	1274.98867	353.03146	-211.70744	1172.46875	430.13636	-162.25528	1213.78304	320.57174	-163.78605	847.96797	457.60159	-554.80844	848.05471	337.58742	-571.64892	1189.41699	810.23360	-211.57071	1226.34584	704.74585	-222.28487	1206.51095	668.12705	-168.45114	1112.08146	774.65335	-137.64351	1150.67423	665.17060	-156.65882	1059.12786	779.89950	-550.38236	1034.66494	646.03682	-541.63148	950.09629	796.62505	-576.60843	926.13373	660.51814	-556.37107	1097.59620	1045.81373	-219.20369	906.17110	1091.13482	-321.14176	1126.78388	1026.74434	-482.80370	913.95264	1090.54396	-417.46654	1031.58594	1536.79616	-552.29870	1071.13831	1561.35908	-348.06431	1107.16775	1405.21072	-670.52150	1155.06622	1468.89656	-473.96782	1156.64951	1444.35660	-515.04600	1034.64550	1440.43942	-212.03064	906.29013	1240.95997	-186.15860	934.80949	1281.87410	-117.21580	1019.12649	1131.20433	-77.26574	1044.14825	1017.13550	-39.77693	1017.48867	1018.43858	-8.01499	1158.23017	1242.02842	-707.80312	1160.65372	1025.08440	-640.38453	1198.31277	1044.96620	-709.29249	1349.59804	996.69962	-644.85059	1445.00332	923.94831	-633.08910	1427.31216	895.65088	-669.85726	1013.33518	970.96407	-256.58410	1033.80090	947.72929	-467.71577	1025.60463	962.05087	-262.18537	1039.73556	960.97766	-437.10292	
120	1.19000000	1184.99874	561.06433	-194.94921	1248.74342	459.09295	-196.87783	1277.48116	111.79616	-218.48529	1242.53590	64.41427	-282.78325	1419.55897	80.31283	-148.37252	1454.08770	132.45260	-202.30549	920.21343	553.40266	-535.35209	937.17388	444.89357	-525.32887	792.40834	114.00968	-511.72934	732.95330	89.62943	-456.90587	925.52556	30.66592	-546.77764	964.98905	53.82205	-481.77238	1290.59840	353.75074	-213.81112	1185.52257	427.15796	-163.81956	1231.29033	319.38219	-165.09623	852.22056	458.26845	-555.69554	850.98116	338.11525	-572.29787	1198.47153	805.71411	-212.51721	1234.53594	699.83542	-223.62817	1213.89743	663.19606	-170.17781	1120.43407	770.43787	-139.14878	1158.02944	660.70625	-158.62415	1066.50751	778.73295	-551.39542	1040.92414	645.15482	-542.72513	957.54625	796.45534	-577.16672	932.34128	660.67832	-556.98846	1108.32004	1042.74971	-219.62756	916.70201	1089.05506	-320.79628	1136.52442	1025.20280	-483.46693	924.19812	1089.07309	-417.14774	1042.31310	1536.53863	-548.32504	1082.38918	1558.93128	-343.87153	1117.26755	1405.68664	-667.86512	1165.74743	1467.56746	-470.91307	1167.21205	1443.34642	-512.13485	1045.77805	1436.98014	-208.75938	917.01970	1237.62589	-184.16582	945.55998	1278.07521	-114.98409	1029.31509	1126.92101	-75.74155	1054.02856	1012.57972	-38.89302	1027.17485	1013.76527	-7.18757	1167.42523	1242.37606	-705.94516	1168.18860	1024.73714	-640.32179	1206.13149	1044.91568	-708.97093	1356.99657	996.52759	-644.15631	1452.92745	924.23661	-632.37098	1435.29443	895.98981	-669.28840	1023.75861	968.30235	-257.25139	1043.52099	946.28376	-468.58078	1035.98674	959.31379	-262.94418	1049.60094	959.34484	-437.92337	
121	1.20000000	1193.06215	557.40530	-197.14560	1260.32150	458.31565	-198.96587	1301.51528	111.50598	-219.26499	1267.28657	62.17411	-282.33954	1446.54401	85.77756	-151.67951	1477.56235	139.31825	-206.44738	925.93397	553.32205	-536.28950	941.65195	444.43277	-526.15110	793.07055	115.04754	-512.17435	733.43857	91.17825	-457.34745	925.64677	30.48066	-547.01549	965.04615	53.49307	-482.01511	1305.57606	354.28956	-215.82837	1198.29785	424.39069	-165.46881	1247.95552	318.30144	-166.51861	856.80015	458.91459	-556.67970	854.15656	338.60341	-572.97917	1207.79484	801.24947	-213.31006	1242.96854	694.97376	-224.85540	1221.61382	658.34855	-171.72011	1129.06884	766.24908	-140.46338	1165.72142	656.29276	-160.38379	1074.11555	777.52933	-552.41226	1047.46108	644.20230	-543.83773	965.21992	796.20342	-577.75490	938.83058	660.69689	-557.67280	1119.21899	1039.71100	-220.06897	927.33872	1086.83801	-320.39852	1146.40375	1023.62459	-484.08376	934.54796	1087.44864	-416.77717	1053.09530	1536.20692	-544.15174	1093.72240	1556.31632	-339.47948	1127.41779	1406.13636	-665.06972	1176.49332	1466.15763	-467.70784	1177.84786	1442.28168	-509.09364	1057.09638	1433.23553	-205.34138	927.99567	1233.97786	-182.04220	956.53992	1273.95654	-112.64215	1039.71753	1122.31796	-74.11814	1064.10638	1007.71868	-37.92372	1037.09488	1008.76279	-6.28950	1176.54183	1242.62438	-704.01610	1175.41837	1024.31206	-640.25236	1213.66742	1044.78142	-708.62363	1363.92976	995.94163	-643.44243	1460.38542	924.01699	-631.68077	1442.74735	895.84830	-668.74300	1034.39297	965.60138	-257.86172	1053.42430	944.75004	-469.37661	1046.58277	956.54515	-263.68831	1059.67420	957.65128	-438.68823	
122	1.21000000	1201.93184	554.04020	-199.15839	1272.07175	457.35414	-200.85514	1323.42420	111.11009	-220.44325	1289.86341	60.08806	-282.43055	1470.94395	90.29670	-155.22904	1498.81397	145.03118	-210.65517	932.01960	553.18447	-537.18434	946.38221	443.84818	-526.92121	793.81295	116.17777	-512.63207	733.97808	92.84134	-457.82257	925.75313	30.30895	-547.25032	965.09505	53.14815	-482.23083	1319.99533	354.44911	-217.80091	1210.97445	421.82055	-167.16235	1263.76731	317.16702	-168.07027	861.77843	459.49840	-557.71643	857.64088	339.05724	-573.67767	1217.47173	797.04442	-214.01332	1251.80286	690.41175	-226.05353	1229.98267	653.81577	-173.10814	1138.18907	762.22204	-141.56349	1174.06939	652.10337	-161.92315	1081.99100	776.28086	-553.41049	1054.31034	643.17417	-544.94415	973.15565	795.87327	-578.38112	945.65308	660.57916	-558.39352	1130.26978	1036.71103	-220.51335	938.06107	1084.51034	-319.95012	1156.44544	1022.01864	-484.66773	945.00065	1085.69348	-416.35610	1063.92958	1535.80291	-539.77895	1105.12861	1553.52751	-334.89730	1137.63209	1406.57668	-662.14031	1187.29641	1464.67931	-464.35327	1188.56002	1441.17985	-505.92400	1068.60069	1429.21974	-201.79540	939.22405	1230.02446	-179.80665	967.75193	1269.52956	-110.19770	1050.34648	1117.40960	-72.40928	1074.37828	1002.56426	-36.87785	1047.25563	1003.45008	-5.32256	1185.57637	1242.79232	-702.03259	1182.38362	1023.86752	-640.13790	1220.93708	1044.59434	-708.23974	1370.47711	994.98656	-642.70670	1467.34711	923.26794	-631.01322	1449.67552	895.21374	-668.21904	1045.22053	962.87663	-258.41696	1063.50985	943.14624	-470.10451	1057.36449	953.75606	-264.42192	1069.96260	955.90076	-439.42075	
123	1.22000000	1211.90946	551.06736	-200.97390	1284.19550	456.10684	-202.60744	1342.78865	110.36433	-222.07978	1309.74620	57.99597	-283.17566	1492.26963	93.35971	-158.98600	1517.55967	149.02115	-214.89432	938.49100	552.94918	-538.03130	951.42426	443.14898	-527.61089	794.65024	117.41061	-513.09124	734.57819	94.62998	-458.32174	925.84954	30.16477	-547.46952	965.15362	52.80494	-482.40685	1333.92224	354.02603	-219.80206	1223.73291	419.41429	-168.85899	1278.73962	315.81518	-169.77165	867.20579	459.97702	-558.74659	861.47781	339.47756	-574.37505	1227.60137	793.31261	-214.70386	1261.23553	686.41731	-227.30224	1239.34302	649.83905	-174.38585	1148.01191	758.50390	-142.44845	1183.40833	648.32176	-163.24651	1090.16686	774.97242	-554.36959	1061.49818	642.06834	-546.01540	981.39686	795.45700	-579.04701	952.85378	660.33234	-559.11787	1141.44479	1033.74785	-220.93536	948.86616	1082.08817	-319.46274	1166.66471	1020.38727	-485.21846	955.56618	1083.82554	-415.89276	1074.81070	1535.33676	-535.20515	1116.59501	1550.58101	-330.13177	1147.93188	1407.02978	-659.08233	1198.15234	1463.14217	-460.84531	1199.35033	1440.05259	-502.62004	1080.28202	1424.94923	-198.14366	950.69972	1225.77947	-177.48355	979.19551	1264.80977	-107.66152	1061.21246	1112.21545	-70.62706	1084.85632	997.13832	-35.75801	1057.65816	997.85791	-4.27972	1194.53317	1242.90594	-700.00475	1189.11267	1023.45295	-639.95052	1227.95521	1044.38287	-707.81028	1376.71843	993.71155	-641.94962	1473.76792	921.97122	-630.36359	1456.06514	894.08745	-667.72239	1056.21882	960.13200	-258.91862	1073.78192	941.48241	-470.76527	1068.30567	950.94339	-265.13800	1080.46515	954.09340	-440.13061	
124	1.23000000	1223.17762	548.52534	-202.60684	1296.79432	454.47457	-204.33491	1359.31130	109.08354	-224.18993	1326.51367	55.78645	-284.60638	1510.18889	94.58509	-162.90225	1533.62853	150.81957	-219.17487	945.37265	552.57718	-538.83269	956.83974	442.34593	-528.20551	795.59662	118.75054	-513.54288	735.23891	96.55875	-458.83842	925.94755	30.06083	-547.66302	965.25189	52.48764	-482.53734	1347.39041	352.85173	-221.92242	1236.69395	417.12259	-170.53641	1292.89478	314.11179	-171.64776	873.10218	460.32343	-559.71197	865.68857	339.86115	-575.05233	1238.28139	790.23089	-215.45213	1271.46936	683.21722	-228.65116	1249.96550	646.61496	-175.60677	1158.72167	755.22132	-143.14477	1194.01117	645.10055	-164.38508	1098.67406	773.58766	-555.26855	1069.04913	640.88507	-547.01788	989.98739	794.93453	-579.75043	960.47126	659.95666	-559.82083	1152.72439	1030.81575	-221.30162	959.77246	1079.57252	-318.95535	1177.06726	1018.72501	-485.72007	966.26413	1081.85319	-415.40099	1085.72865	1534.82628	-530.42889	1128.10188	1547.49368	-325.18913	1158.34184	1407.51962	-655.90028	1209.05839	1461.55190	-457.17489	1210.21459	1438.90507	-499.16973	1092.12161	1420.44191	-194.40844	962.40962	1221.25930	-175.09734	990.86831	1259.81443	-105.04771	1072.32154	1106.75816	-68.78088	1095.56024	991.46466	-34.56309	1068.30637	992.02113	-3.15080	1203.42394	1242.99258	-697.93496	1195.62200	1023.10302	-639.67388	1234.73477	1044.17185	-707.32950	1382.71248	992.15897	-641.17226	1479.59717	920.11241	-629.72813	1461.90001	892.48142	-667.26049	1067.37238	957.36565	-259.36233	1084.25424	939.75618	-471.35340	1079.39950	948.09025	-265.81503	1091.17861	952.22613	-440.80790	
